<svg viewBox="0 0 187 50" fill="none" xmlns="http://www.w3.org/2000/svg"><path d="M46.934 47.2066C46.934 48.256 46.2594 49.1555 45.0227 49.1555C43.7859 49.1555 43.1113 48.256 43.1113 47.2066C43.1113 46.1573 43.7859 45.2578 45.0227 45.2578C46.2594 45.2578 46.934 46.1573 46.934 47.2066ZM45.0227 48.8931C46.072 48.8931 46.6717 48.1436 46.6717 47.2066C46.6717 46.2697 46.072 45.4827 45.0227 45.4827C43.9733 45.4827 43.3737 46.2322 43.3737 47.2066C43.3737 48.1436 43.9733 48.8931 45.0227 48.8931ZM45.2101 46.1573H44.3106V48.181H44.5729V47.4315H45.0227L45.6973 48.181H45.9596V48.1436L45.3225 47.4315C46.1095 47.3191 46.072 46.1573 45.2101 46.1573ZM44.5729 46.4196H45.2101C45.7722 46.4196 45.7722 47.2066 45.2101 47.2066H44.5729V46.4196Z" fill="black"></path><path d="M23.1361 20.5982V0.847656L12.9798 4.8952V24.6457L27.4085 39.1869H19.7632H19.0136H17.7019H17.6644H15.041H14.5538H12.4176C12.2302 39.1869 12.1553 39.7491 12.1553 40.0489C12.1553 40.7985 12.7549 41.4356 13.5045 41.4356C14.179 41.4356 14.7037 40.9484 14.8162 40.3487C14.8911 40.8359 15.1909 41.2482 15.6032 41.5105C15.1909 41.7354 14.8911 42.1476 14.8536 42.6348C14.7412 41.9977 14.179 41.5105 13.5045 41.5105C12.7549 41.5105 12.1553 42.1102 12.1553 42.8597C12.1553 43.6093 12.7549 44.2089 13.5045 44.2089C14.179 44.2089 14.7412 43.7217 14.8162 43.0846C14.8911 43.5718 15.1909 44.0215 15.6032 44.2464C15.1909 44.4712 14.8536 44.921 14.8162 45.4082C14.7037 44.7711 14.1416 44.2838 13.5045 44.2838C12.7549 44.2838 12.1553 44.8835 12.1553 45.633C12.1553 46.3826 12.7549 46.9822 13.5045 46.9822C14.179 46.9822 14.7412 46.495 14.8536 45.8579C14.9286 46.3451 15.2284 46.7574 15.6032 46.9822C15.1909 47.2071 14.8911 47.6193 14.8162 48.144C14.7037 47.5069 14.1416 47.0197 13.5045 47.0197C12.7549 47.0197 12.1553 47.5444 12.1553 48.2939C12.1553 48.5937 12.2677 49.0435 12.4176 49.0435H14.5913H15.0785H17.7019H19.0511H19.8006H37.2651L44.011 41.7354L23.1361 20.5982Z" fill="black"></path><path d="M10.1319 39.225C9.94446 39.225 9.83203 39.7497 9.83203 40.0495C9.83203 40.6866 10.3567 41.2113 10.9563 41.2113C11.556 41.2113 12.0807 40.6491 12.0807 40.012C12.0807 39.7122 11.9682 39.1875 11.7809 39.1875H10.1319V39.225Z" fill="black"></path><path d="M10.9563 41.6992C10.3192 41.6992 9.83203 42.2239 9.83203 42.8235C9.83203 43.4232 10.3567 43.9479 10.9563 43.9479C11.556 43.9479 12.0807 43.4232 12.0807 42.8235C12.0807 42.2239 11.5935 41.6992 10.9563 41.6992Z" fill="black"></path><path d="M10.9564 44.5078C10.3192 44.5078 9.83203 45.0325 9.83203 45.6321C9.83203 46.2692 10.3567 46.7564 10.9564 46.7564C11.556 46.7564 12.0807 46.2318 12.0807 45.6321C12.1181 45.0325 11.5935 44.5078 10.9564 44.5078Z" fill="black"></path><path d="M10.9564 47.207C10.3192 47.207 9.83203 47.6568 9.83203 48.2939C9.83203 48.5937 9.94446 49.0059 10.1319 49.0059H11.8183C12.0057 49.0059 12.1181 48.5937 12.1181 48.2939C12.1181 47.6568 11.5935 47.207 10.9564 47.207Z" fill="black"></path><path d="M8.96943 39.2227H7.88259C7.65772 39.2227 7.50781 39.7099 7.50781 40.0472C7.50781 40.5718 7.92006 41.0216 8.44474 41.0216C8.96943 41.0216 9.38168 40.5718 9.38168 40.0472C9.3442 39.7099 9.19429 39.2227 8.96943 39.2227Z" fill="black"></path><path d="M8.44474 43.7606C8.9622 43.7606 9.38168 43.3411 9.38168 42.8237C9.38168 42.3062 8.9622 41.8867 8.44474 41.8867C7.92729 41.8867 7.50781 42.3062 7.50781 42.8237C7.50781 43.3411 7.92729 43.7606 8.44474 43.7606Z" fill="black"></path><path d="M8.44474 44.7344C7.92006 44.7344 7.50781 45.1466 7.50781 45.6713C7.50781 46.196 7.92006 46.6082 8.44474 46.6082C8.96943 46.6082 9.38168 46.196 9.38168 45.6713C9.3442 45.1466 8.93195 44.7344 8.44474 44.7344Z" fill="black"></path><path d="M8.44474 47.4688C7.92006 47.4688 7.50781 47.806 7.50781 48.3307C7.50781 48.6305 7.65772 49.0053 7.88259 49.0053H9.0069C9.23177 49.0053 9.38168 48.6305 9.38168 48.3307C9.3442 47.806 8.93195 47.4688 8.44474 47.4688Z" fill="black"></path><path d="M5.89664 39.2227C5.48439 39.2227 5.18457 39.5599 5.18457 39.9347C5.18457 40.347 5.52187 40.6468 5.89664 40.6468C6.30889 40.6468 6.60871 40.3095 6.60871 39.9347C6.60871 39.5225 6.30889 39.2227 5.89664 39.2227Z" fill="black"></path><path d="M5.89664 41.9219C5.48439 41.9219 5.18457 42.2592 5.18457 42.6339C5.18457 43.0462 5.52187 43.346 5.89664 43.346C6.30889 43.346 6.60871 43.0087 6.60871 42.6339C6.60871 42.2592 6.30889 41.9219 5.89664 41.9219Z" fill="black"></path><path d="M5.89664 46.2718C6.2899 46.2718 6.60871 45.953 6.60871 45.5597C6.60871 45.1664 6.2899 44.8477 5.89664 44.8477C5.50337 44.8477 5.18457 45.1664 5.18457 45.5597C5.18457 45.953 5.50337 46.2718 5.89664 46.2718Z" fill="black"></path><path d="M5.89664 47.582C5.48439 47.582 5.18457 47.9193 5.18457 48.2941C5.18457 48.6314 5.44691 48.9312 5.78421 49.0062C5.82168 49.0062 5.89664 49.0062 5.93412 49.0062C5.97159 49.0062 6.04655 49.0062 6.08403 49.0062C6.42132 48.9312 6.68366 48.6314 6.68366 48.2941C6.60871 47.8819 6.30889 47.582 5.89664 47.582Z" fill="black"></path><path d="M3.3489 39.375C3.04908 39.375 2.82422 39.5999 2.82422 39.8997C2.82422 40.1995 3.04908 40.4244 3.3489 40.4244C3.64872 40.4244 3.87358 40.1995 3.87358 39.8997C3.87358 39.5999 3.64872 39.375 3.3489 39.375Z" fill="black"></path><path d="M3.3489 42.1094C3.04908 42.1094 2.82422 42.3342 2.82422 42.634C2.82422 42.9339 3.04908 43.1587 3.3489 43.1587C3.64872 43.1587 3.87358 42.9339 3.87358 42.634C3.87358 42.3717 3.64872 42.1094 3.3489 42.1094Z" fill="black"></path><path d="M3.3489 45.0703C3.04908 45.0703 2.82422 45.2952 2.82422 45.595C2.82422 45.8948 3.04908 46.1197 3.3489 46.1197C3.64872 46.1197 3.87358 45.8948 3.87358 45.595C3.87358 45.2952 3.64872 45.0703 3.3489 45.0703Z" fill="black"></path><path d="M3.3489 47.8047C3.04908 47.8047 2.82422 48.0296 2.82422 48.3294C2.82422 48.6292 3.04908 48.8541 3.3489 48.8541C3.64872 48.8541 3.87358 48.6292 3.87358 48.3294C3.87358 48.0296 3.64872 47.8047 3.3489 47.8047Z" fill="black"></path><path d="M0.799818 39.5625C0.612432 39.5625 0.5 39.7124 0.5 39.8623C0.5 40.0497 0.649909 40.1622 0.799818 40.1622C0.949728 40.1622 1.09964 40.0122 1.09964 39.8623C1.13711 39.7124 0.987205 39.5625 0.799818 39.5625Z" fill="black"></path><path d="M0.799818 42.2969C0.612432 42.2969 0.5 42.4468 0.5 42.5967C0.5 42.7841 0.649909 42.8965 0.799818 42.8965C0.949728 42.8965 1.09964 42.7466 1.09964 42.5967C1.13711 42.4468 0.987205 42.2969 0.799818 42.2969Z" fill="black"></path><path d="M0.799818 45.2969C0.612432 45.2969 0.5 45.4468 0.5 45.5967C0.5 45.7841 0.649909 45.8965 0.799818 45.8965C0.949728 45.8965 1.09964 45.7466 1.09964 45.5967C1.13711 45.4468 0.987205 45.2969 0.799818 45.2969Z" fill="black"></path><path d="M0.799818 48.0312C0.612432 48.0312 0.5 48.1812 0.5 48.3311C0.5 48.5185 0.649909 48.6309 0.799818 48.6309C0.949728 48.6309 1.09964 48.481 1.09964 48.3311C1.13711 48.1812 0.987205 48.0312 0.799818 48.0312Z" fill="black"></path></svg>