<?xml version="1.0" encoding="UTF-8"?>
<!DOCTYPE svg PUBLIC "-//W3C//DTD SVG 1.1//EN" "http://www.w3.org/Graphics/SVG/1.1/DTD/svg11.dtd">
<svg xmlns="http://www.w3.org/2000/svg" version="1.1" width="500px" height="500px" style="shape-rendering:geometricPrecision; text-rendering:geometricPrecision; image-rendering:optimizeQuality; fill-rule:evenodd; clip-rule:evenodd" xmlns:xlink="http://www.w3.org/1999/xlink">
<g><path style="opacity:1" fill="#2fbfe0" d="M 398.5,105.5 C 399.167,105.5 399.5,105.833 399.5,106.5C 399.297,108.044 398.63,109.378 397.5,110.5C 398.325,111.386 399.325,111.719 400.5,111.5C 400.351,112.552 400.517,113.552 401,114.5C 401.889,113.112 402.389,113.278 402.5,115C 401.507,117.453 401.34,119.953 402,122.5C 403.011,123.337 404.178,123.67 405.5,123.5C 403.601,116.888 404.934,116.054 409.5,121C 408.91,123.257 407.577,124.924 405.5,126C 405.833,126.333 406.167,126.667 406.5,127C 401.587,128.359 401.587,130.193 406.5,132.5C 407.192,131.975 407.692,131.308 408,130.5C 408.554,135.408 408.387,140.408 407.5,145.5C 409.533,149.887 411.199,154.387 412.5,159C 405.508,159.5 398.508,159.666 391.5,159.5C 391.5,154.167 391.5,148.833 391.5,143.5C 388.833,143.5 386.167,143.5 383.5,143.5C 383.5,148.833 383.5,154.167 383.5,159.5C 378.167,159.5 372.833,159.5 367.5,159.5C 367.5,156.833 367.5,154.167 367.5,151.5C 362.167,151.5 356.833,151.5 351.5,151.5C 351.813,154.247 351.48,156.914 350.5,159.5C 349.655,155.649 347.322,153.649 343.5,153.5C 343.5,152.167 343.5,150.833 343.5,149.5C 339.678,149.351 337.345,147.351 336.5,143.5C 335.676,146.785 335.176,150.118 335,153.5C 333.763,151.896 332.597,150.229 331.5,148.5C 330.436,152.192 329.27,155.858 328,159.5C 326.614,156.709 324.78,154.209 322.5,152C 321.552,151.517 320.552,151.351 319.5,151.5C 319.5,150.5 319.5,149.5 319.5,148.5C 317.5,148.5 315.5,148.5 313.5,148.5C 313.52,146.857 312.853,145.524 311.5,144.5C 313.388,139.062 314.054,133.395 313.5,127.5C 310.482,127.665 307.482,127.498 304.5,127C 303.549,123.943 303.216,120.777 303.5,117.5C 298.167,117.5 292.833,117.5 287.5,117.5C 287.5,115.5 287.5,113.5 287.5,111.5C 282.167,111.5 276.833,111.5 271.5,111.5C 271.5,106.167 271.5,100.833 271.5,95.5C 266.489,95.3341 261.489,95.5007 256.5,96C 255.217,99.0483 253.551,99.215 251.5,96.5C 252.628,95.7379 253.795,95.0712 255,94.5C 255.497,92.1902 255.663,89.8568 255.5,87.5C 251.154,87.6657 246.821,87.499 242.5,87C 239.959,85.1516 238.959,82.6516 239.5,79.5C 231.226,79.1154 223.392,79.7821 216,81.5C 207.72,80.8518 199.553,79.5184 191.5,77.5C 191.5,75.8333 191.5,74.1667 191.5,72.5C 194.187,72.6641 196.854,72.4974 199.5,72C 194.177,71.5006 188.844,71.334 183.5,71.5C 183.5,66.1667 183.5,60.8333 183.5,55.5C 186.167,55.5 188.833,55.5 191.5,55.5C 191.5,51.5 191.5,47.5 191.5,43.5C 188.91,43.3962 186.577,44.0629 184.5,45.5C 182.054,44.037 179.72,44.2036 177.5,46C 179.901,46.805 179.734,47.6383 177,48.5C 176.044,47.4214 175.211,46.2547 174.5,45C 178.278,43.9449 181.611,42.1116 184.5,39.5C 190.054,41.7466 195.554,43.4133 201,44.5C 201.775,42.7769 203.108,41.7769 205,41.5C 208.441,42.3822 211.941,42.7155 215.5,42.5C 215.5,41.5 215.5,40.5 215.5,39.5C 217.481,38.6525 219.481,38.1525 221.5,38C 223.192,39.4007 223.859,41.2341 223.5,43.5C 234.167,43.5 244.833,43.5 255.5,43.5C 255.5,44.8333 255.5,46.1667 255.5,47.5C 260.833,47.5 266.167,47.5 271.5,47.5C 272.167,42.1667 272.833,42.1667 273.5,47.5C 278.146,48.1217 282.312,48.1217 286,47.5C 287.188,48.5634 287.688,49.8967 287.5,51.5C 290.265,51.7976 292.765,52.7976 295,54.5C 295.308,53.6919 295.808,53.0253 296.5,52.5C 300.868,56.0103 305.868,57.8437 311.5,58C 313.833,59 315.5,60.6667 316.5,63C 317.872,63.4017 319.205,63.9017 320.5,64.5C 321.494,69.456 321.827,74.456 321.5,79.5C 322.833,79.5 324.167,79.5 325.5,79.5C 325.74,76.4212 325.407,73.4212 324.5,70.5C 325.5,67.8333 326.5,65.1667 327.5,62.5C 330.239,61.2327 332.906,61.3994 335.5,63C 333.167,63.3333 330.833,63.6667 328.5,64C 328.043,64.414 327.709,64.914 327.5,65.5C 329.76,70.2966 330.093,75.2966 328.5,80.5C 330.5,87.1667 332.5,87.1667 334.5,80.5C 340.524,79.2087 346.524,79.2087 352.5,80.5C 353.693,78.4733 355.36,76.9733 357.5,76C 355.831,74.331 353.831,73.4977 351.5,73.5C 351.5,72.5 351.5,71.5 351.5,70.5C 352.873,70.6567 354.207,70.49 355.5,70C 354.289,69.1072 354.289,68.2739 355.5,67.5C 358.237,68.0694 359.737,69.736 360,72.5C 360.333,72.1667 360.667,71.8333 361,71.5C 362.496,74.0024 364.663,75.6691 367.5,76.5C 368.711,77.7202 368.711,78.8869 367.5,80C 369.112,80.7203 370.612,80.5536 372,79.5C 380.099,89.1007 388.932,97.7674 398.5,105.5 Z"/></g>
<g><path style="opacity:1" fill="#45bbd3" d="M 216.5,87.5 C 215.883,87.6107 215.383,87.944 215,88.5C 211.202,86.3819 207.202,84.7152 203,83.5C 201.941,83.6301 201.108,84.1301 200.5,85C 193.5,85.3333 186.5,85.6667 179.5,86C 181.708,86.1909 183.708,86.6909 185.5,87.5C 172.496,87.3334 159.496,87.5001 146.5,88C 123.142,93.0955 101.975,102.929 83,117.5C 81.7705,116.725 81.4372,115.725 82,114.5C 88.3812,106.384 95.2145,98.7176 102.5,91.5C 101.758,93.4258 100.758,95.2591 99.5,97C 100.308,97.3076 100.975,97.8076 101.5,98.5C 97.3602,101.755 97.6936,103.255 102.5,103C 104.955,101.058 106.288,98.5584 106.5,95.5C 108.924,95.8076 111.257,95.4742 113.5,94.5C 112.675,93.6143 111.675,93.281 110.5,93.5C 110.351,92.448 110.517,91.448 111,90.5C 117.069,92.9234 123.236,93.0901 129.5,91C 133.127,87.5251 137.293,86.6918 142,88.5C 142.692,87.9747 143.192,87.3081 143.5,86.5C 141.034,85.8765 138.701,85.0432 136.5,84C 141.222,83.2231 145.889,83.3897 150.5,84.5C 156.987,82.3695 163.654,81.2028 170.5,81C 169.304,80.3457 169.304,79.8457 170.5,79.5C 171.197,81.3845 172.197,81.7178 173.5,80.5C 176.296,83.1948 179.13,83.5282 182,81.5C 184.035,82.6014 186.202,83.268 188.5,83.5C 194.798,82.2533 201.131,81.7533 207.5,82C 210.3,83.2319 213.3,83.8985 216.5,84C 217.684,85.1455 217.684,86.3121 216.5,87.5 Z"/></g>
<g><path style="opacity:1" fill="#31bddd" d="M 398.5,105.5 C 388.932,97.7674 380.099,89.1007 372,79.5C 370.612,80.5536 369.112,80.7203 367.5,80C 368.711,78.8869 368.711,77.7202 367.5,76.5C 364.663,75.6691 362.496,74.0024 361,71.5C 360.667,71.8333 360.333,72.1667 360,72.5C 359.737,69.736 358.237,68.0694 355.5,67.5C 354.289,68.2739 354.289,69.1072 355.5,70C 354.207,70.49 352.873,70.6567 351.5,70.5C 351.5,71.5 351.5,72.5 351.5,73.5C 353.831,73.4977 355.831,74.331 357.5,76C 355.36,76.9733 353.693,78.4733 352.5,80.5C 346.524,79.2087 340.524,79.2087 334.5,80.5C 332.5,87.1667 330.5,87.1667 328.5,80.5C 330.093,75.2966 329.76,70.2966 327.5,65.5C 327.709,64.914 328.043,64.414 328.5,64C 330.833,63.6667 333.167,63.3333 335.5,63C 332.906,61.3994 330.239,61.2327 327.5,62.5C 326.5,65.1667 325.5,67.8333 324.5,70.5C 325.407,73.4212 325.74,76.4212 325.5,79.5C 324.167,79.5 322.833,79.5 321.5,79.5C 321.827,74.456 321.494,69.456 320.5,64.5C 319.205,63.9017 317.872,63.4017 316.5,63C 315.5,60.6667 313.833,59 311.5,58C 305.868,57.8437 300.868,56.0103 296.5,52.5C 295.808,53.0253 295.308,53.6919 295,54.5C 292.765,52.7976 290.265,51.7976 287.5,51.5C 287.688,49.8967 287.188,48.5634 286,47.5C 282.312,48.1217 278.146,48.1217 273.5,47.5C 272.833,42.1667 272.167,42.1667 271.5,47.5C 266.167,47.5 260.833,47.5 255.5,47.5C 255.5,46.1667 255.5,44.8333 255.5,43.5C 244.833,43.5 234.167,43.5 223.5,43.5C 223.859,41.2341 223.192,39.4007 221.5,38C 219.481,38.1525 217.481,38.6525 215.5,39.5C 215.5,40.5 215.5,41.5 215.5,42.5C 211.941,42.7155 208.441,42.3822 205,41.5C 203.108,41.7769 201.775,42.7769 201,44.5C 195.554,43.4133 190.054,41.7466 184.5,39.5C 181.611,42.1116 178.278,43.9449 174.5,45C 175.211,46.2547 176.044,47.4214 177,48.5C 179.734,47.6383 179.901,46.805 177.5,46C 179.72,44.2036 182.054,44.037 184.5,45.5C 186.577,44.0629 188.91,43.3962 191.5,43.5C 191.5,47.5 191.5,51.5 191.5,55.5C 188.833,55.5 186.167,55.5 183.5,55.5C 183.5,60.8333 183.5,66.1667 183.5,71.5C 188.844,71.334 194.177,71.5006 199.5,72C 196.854,72.4974 194.187,72.6641 191.5,72.5C 191.5,74.1667 191.5,75.8333 191.5,77.5C 199.553,79.5184 207.72,80.8518 216,81.5C 223.392,79.7821 231.226,79.1154 239.5,79.5C 238.959,82.6516 239.959,85.1516 242.5,87C 246.821,87.499 251.154,87.6657 255.5,87.5C 255.663,89.8568 255.497,92.1902 255,94.5C 253.795,95.0712 252.628,95.7379 251.5,96.5C 253.551,99.215 255.217,99.0483 256.5,96C 261.489,95.5007 266.489,95.3341 271.5,95.5C 271.5,100.833 271.5,106.167 271.5,111.5C 276.833,111.5 282.167,111.5 287.5,111.5C 287.5,113.5 287.5,115.5 287.5,117.5C 292.833,117.5 298.167,117.5 303.5,117.5C 303.216,120.777 303.549,123.943 304.5,127C 307.482,127.498 310.482,127.665 313.5,127.5C 314.054,133.395 313.388,139.062 311.5,144.5C 312.853,145.524 313.52,146.857 313.5,148.5C 315.5,148.5 317.5,148.5 319.5,148.5C 319.5,149.5 319.5,150.5 319.5,151.5C 320.552,151.351 321.552,151.517 322.5,152C 324.78,154.209 326.614,156.709 328,159.5C 329.27,155.858 330.436,152.192 331.5,148.5C 332.597,150.229 333.763,151.896 335,153.5C 335.176,150.118 335.676,146.785 336.5,143.5C 337.345,147.351 339.678,149.351 343.5,149.5C 343.5,150.833 343.5,152.167 343.5,153.5C 347.322,153.649 349.655,155.649 350.5,159.5C 351.48,156.914 351.813,154.247 351.5,151.5C 356.833,151.5 362.167,151.5 367.5,151.5C 367.5,154.167 367.5,156.833 367.5,159.5C 372.833,159.5 378.167,159.5 383.5,159.5C 383.5,154.167 383.5,148.833 383.5,143.5C 386.167,143.5 388.833,143.5 391.5,143.5C 391.5,148.833 391.5,154.167 391.5,159.5C 398.508,159.666 405.508,159.5 412.5,159C 411.199,154.387 409.533,149.887 407.5,145.5C 408.387,140.408 408.554,135.408 408,130.5C 407.692,131.308 407.192,131.975 406.5,132.5C 401.587,130.193 401.587,128.359 406.5,127C 406.167,126.667 405.833,126.333 405.5,126C 407.577,124.924 408.91,123.257 409.5,121C 404.934,116.054 403.601,116.888 405.5,123.5C 404.178,123.67 403.011,123.337 402,122.5C 401.34,119.953 401.507,117.453 402.5,115C 402.389,113.278 401.889,113.112 401,114.5C 400.517,113.552 400.351,112.552 400.5,111.5C 399.325,111.719 398.325,111.386 397.5,110.5C 398.63,109.378 399.297,108.044 399.5,106.5C 415.902,124.919 429.568,145.252 440.5,167.5C 441.51,170.244 441.176,172.577 439.5,174.5C 441.455,176.826 443.455,179.159 445.5,181.5C 444.405,183.62 442.739,185.12 440.5,186C 441.337,187.011 441.67,188.178 441.5,189.5C 442.833,189.5 444.167,189.5 445.5,189.5C 445,193.493 446.5,195.16 450,194.5C 452.316,195.522 452.816,197.022 451.5,199C 446.167,200.5 440.833,202 435.5,203.5C 430.142,202.508 424.976,201.841 420,201.5C 414.757,202.9 409.59,204.734 404.5,207C 399.318,208.529 395.318,207.029 392.5,202.5C 389.634,201.792 386.8,201.125 384,200.5C 383.667,200.833 383.333,201.167 383,201.5C 382.5,199.667 381.333,198.5 379.5,198C 372.648,197.361 366.815,194.861 362,190.5C 361.282,191.451 360.449,191.617 359.5,191C 355.833,188.5 352.167,186 348.5,183.5C 346.334,185.532 344.334,185.032 342.5,182C 340.065,181.147 337.731,180.147 335.5,179C 337.556,178.689 339.556,178.189 341.5,177.5C 342.833,176.833 342.833,176.167 341.5,175.5C 339.549,174.744 337.716,174.411 336,174.5C 335.667,175.167 335.333,175.833 335,176.5C 329.154,173.321 324.654,168.821 321.5,163C 323.586,159.437 322.753,158.937 319,161.5C 316.365,159.367 313.865,157.034 311.5,154.5C 310.311,153.571 308.978,153.238 307.5,153.5C 307.833,150.5 306.5,149.167 303.5,149.5C 303.5,148.167 303.5,146.833 303.5,145.5C 301.8,145.374 300.3,144.707 299,143.5C 298.5,143.833 298,144.167 297.5,144.5C 299.946,145.427 300.779,147.094 300,149.5C 297.534,147.273 294.7,145.606 291.5,144.5C 292.833,143.38 293.333,142.047 293,140.5C 291.287,139.122 289.953,137.455 289,135.5C 287.388,138.079 285.888,138.079 284.5,135.5C 286.756,134.579 287.756,132.912 287.5,130.5C 284.245,130.014 281.578,131.014 279.5,133.5C 275.783,131.955 272.45,129.788 269.5,127C 271.211,125.867 271.711,124.367 271,122.5C 268.574,119.405 265.574,117.072 262,115.5C 261.107,116.081 260.107,116.415 259,116.5C 257.009,115.237 255.009,113.903 253,112.5C 252.667,112.833 252.333,113.167 252,113.5C 250.915,112.707 249.748,112.04 248.5,111.5C 247.215,109.247 246.215,107.081 245.5,105C 242.756,105.991 240.089,105.657 237.5,104C 237.057,102.482 237.724,101.315 239.5,100.5C 236.837,99.8076 234.337,98.8076 232,97.5C 227.852,92.5139 222.685,89.1806 216.5,87.5C 217.684,86.3121 217.684,85.1455 216.5,84C 213.3,83.8985 210.3,83.2319 207.5,82C 201.131,81.7533 194.798,82.2533 188.5,83.5C 186.202,83.268 184.035,82.6014 182,81.5C 179.13,83.5282 176.296,83.1948 173.5,80.5C 172.197,81.7178 171.197,81.3845 170.5,79.5C 169.304,79.8457 169.304,80.3457 170.5,81C 163.654,81.2028 156.987,82.3695 150.5,84.5C 145.889,83.3897 141.222,83.2231 136.5,84C 138.701,85.0432 141.034,85.8765 143.5,86.5C 143.192,87.3081 142.692,87.9747 142,88.5C 137.293,86.6918 133.127,87.5251 129.5,91C 123.236,93.0901 117.069,92.9234 111,90.5C 110.517,91.448 110.351,92.448 110.5,93.5C 111.675,93.281 112.675,93.6143 113.5,94.5C 111.257,95.4742 108.924,95.8076 106.5,95.5C 106.288,98.5584 104.955,101.058 102.5,103C 97.6936,103.255 97.3602,101.755 101.5,98.5C 100.975,97.8076 100.308,97.3076 99.5,97C 100.758,95.2591 101.758,93.4258 102.5,91.5C 129.517,63.6544 161.517,43.8211 198.5,32C 244.321,20.6225 287.987,25.9559 329.5,48C 356.314,62.6528 379.314,81.8195 398.5,105.5 Z"/></g>
<g><path style="opacity:1" fill="#36b6d3" d="M 216.5,87.5 C 222.685,89.1806 227.852,92.5139 232,97.5C 234.337,98.8076 236.837,99.8076 239.5,100.5C 237.724,101.315 237.057,102.482 237.5,104C 240.089,105.657 242.756,105.991 245.5,105C 246.215,107.081 247.215,109.247 248.5,111.5C 249.748,112.04 250.915,112.707 252,113.5C 252.333,113.167 252.667,112.833 253,112.5C 255.009,113.903 257.009,115.237 259,116.5C 260.107,116.415 261.107,116.081 262,115.5C 265.574,117.072 268.574,119.405 271,122.5C 271.711,124.367 271.211,125.867 269.5,127C 272.45,129.788 275.783,131.955 279.5,133.5C 281.578,131.014 284.245,130.014 287.5,130.5C 287.756,132.912 286.756,134.579 284.5,135.5C 285.888,138.079 287.388,138.079 289,135.5C 289.953,137.455 291.287,139.122 293,140.5C 293.333,142.047 292.833,143.38 291.5,144.5C 294.7,145.606 297.534,147.273 300,149.5C 300.779,147.094 299.946,145.427 297.5,144.5C 298,144.167 298.5,143.833 299,143.5C 300.3,144.707 301.8,145.374 303.5,145.5C 303.5,146.833 303.5,148.167 303.5,149.5C 306.5,149.167 307.833,150.5 307.5,153.5C 308.978,153.238 310.311,153.571 311.5,154.5C 313.865,157.034 316.365,159.367 319,161.5C 322.753,158.937 323.586,159.437 321.5,163C 324.654,168.821 329.154,173.321 335,176.5C 335.333,175.833 335.667,175.167 336,174.5C 337.716,174.411 339.549,174.744 341.5,175.5C 342.833,176.167 342.833,176.833 341.5,177.5C 339.556,178.189 337.556,178.689 335.5,179C 337.731,180.147 340.065,181.147 342.5,182C 344.334,185.032 346.334,185.532 348.5,183.5C 352.167,186 355.833,188.5 359.5,191C 360.449,191.617 361.282,191.451 362,190.5C 366.815,194.861 372.648,197.361 379.5,198C 381.333,198.5 382.5,199.667 383,201.5C 383.333,201.167 383.667,200.833 384,200.5C 386.8,201.125 389.634,201.792 392.5,202.5C 395.318,207.029 399.318,208.529 404.5,207C 409.59,204.734 414.757,202.9 420,201.5C 424.976,201.841 430.142,202.508 435.5,203.5C 440.833,202 446.167,200.5 451.5,199C 452.816,197.022 452.316,195.522 450,194.5C 446.5,195.16 445,193.493 445.5,189.5C 444.167,189.5 442.833,189.5 441.5,189.5C 441.67,188.178 441.337,187.011 440.5,186C 442.739,185.12 444.405,183.62 445.5,181.5C 443.455,179.159 441.455,176.826 439.5,174.5C 441.176,172.577 441.51,170.244 440.5,167.5C 445.48,175.453 449.98,183.786 454,192.5C 455.25,195.077 455.584,197.743 455,200.5C 445.748,205.303 435.914,207.969 425.5,208.5C 415.67,209.981 405.67,210.648 395.5,210.5C 377.935,209.072 361.602,203.906 346.5,195C 320.834,178.984 297.168,160.318 275.5,139C 264.833,130.333 254.167,121.667 243.5,113C 225.864,100.503 206.531,92.003 185.5,87.5C 183.708,86.6909 181.708,86.1909 179.5,86C 186.5,85.6667 193.5,85.3333 200.5,85C 201.108,84.1301 201.941,83.6301 203,83.5C 207.202,84.7152 211.202,86.3819 215,88.5C 215.383,87.944 215.883,87.6107 216.5,87.5 Z"/></g>
<g><path style="opacity:1" fill="#83b45e" d="M 224.5,153.5 C 218.129,152.146 212.463,149.479 207.5,145.5C 204.5,144.667 201.5,143.833 198.5,143C 191.244,139.557 183.577,136.891 175.5,135C 165.167,134.333 154.833,134.333 144.5,135C 133.454,137.418 122.454,140.251 111.5,143.5C 151.136,125.918 188.803,129.252 224.5,153.5 Z"/></g>
<g><path style="opacity:1" fill="#74c03e" d="M 224.5,153.5 C 226.853,154.34 228.853,155.674 230.5,157.5C 236.465,163.783 243.131,169.449 250.5,174.5C 253.342,177.542 256.176,180.542 259,183.5C 259.483,184.448 259.649,185.448 259.5,186.5C 263.075,189.046 267.075,190.713 271.5,191.5C 272.541,198.377 276.541,202.544 283.5,204C 288.373,208.039 292.707,212.539 296.5,217.5C 290.493,216.012 285.66,212.679 282,207.5C 281.517,206.552 281.351,205.552 281.5,204.5C 278.343,204.079 276.01,205.245 274.5,208C 275.634,209.016 275.301,209.683 273.5,210C 276.37,213.655 275.87,216.822 272,219.5C 271.505,217.527 271.338,215.527 271.5,213.5C 269.508,213.672 267.842,213.005 266.5,211.5C 264.76,206.234 263.094,201.067 261.5,196C 263.081,195.293 264.581,194.46 266,193.5C 267.281,194.647 267.614,194.313 267,192.5C 262.681,190.34 259.181,187.34 256.5,183.5C 254.336,183.002 252.669,181.836 251.5,180C 250.207,179.51 248.873,179.343 247.5,179.5C 245.977,174.067 243.31,173.401 239.5,177.5C 241.817,179.737 241.983,182.07 240,184.5C 239.275,183.941 238.442,183.608 237.5,183.5C 235.028,184.992 232.361,185.658 229.5,185.5C 229.231,188.525 230.064,191.192 232,193.5C 232.333,193.167 232.667,192.833 233,192.5C 233.814,194.902 233.647,197.235 232.5,199.5C 231.571,198.311 231.238,196.978 231.5,195.5C 229.092,196.061 226.759,196.561 224.5,197C 223.594,195.301 223.261,193.467 223.5,191.5C 220.833,191.5 218.167,191.5 215.5,191.5C 215.5,192.833 215.5,194.167 215.5,195.5C 212.15,195.335 208.817,195.502 205.5,196C 204.167,198.333 202.833,200.667 201.5,203C 198.376,204.165 195.543,205.665 193,207.5C 192.167,207.333 191.333,207.167 190.5,207C 188.5,204.667 186.5,202.333 184.5,200C 188.213,198.837 188.213,197.337 184.5,195.5C 183.571,194.311 183.238,192.978 183.5,191.5C 179.833,191.5 176.167,191.5 172.5,191.5C 172.664,188.813 172.497,186.146 172,183.5C 171.484,187.563 170.651,191.563 169.5,195.5C 170.215,202.35 171.549,209.016 173.5,215.5C 172.5,215.5 171.5,215.5 170.5,215.5C 170.855,221.91 170.355,228.243 169,234.5C 169.5,235.5 170,236.5 170.5,237.5C 173.161,238.499 175.828,239.499 178.5,240.5C 178.253,246.92 181.253,249.92 187.5,249.5C 187.507,252.038 187.841,254.538 188.5,257C 188.32,259.241 187.487,259.741 186,258.5C 185.085,259.328 184.419,260.328 184,261.5C 183.167,260.667 182.333,259.833 181.5,259C 182.833,258 182.833,257 181.5,256C 178.387,256.053 175.887,254.886 174,252.5C 173.08,252.93 172.247,253.264 171.5,253.5C 173.59,255.752 176.09,257.419 179,258.5C 179.445,260.594 178.612,262.094 176.5,263C 178.64,263.973 180.307,265.473 181.5,267.5C 183.071,268.309 184.738,268.643 186.5,268.5C 186.67,269.822 186.337,270.989 185.5,272C 187.063,272.759 188.063,273.926 188.5,275.5C 181.784,269.783 174.784,264.45 167.5,259.5C 153.758,248.939 139.091,239.772 123.5,232C 114.462,228.376 105.129,225.876 95.5,224.5C 89.7047,223.17 83.538,222.504 77,222.5C 70.8333,222.667 64.6667,222.833 58.5,223C 48.7805,225.904 39.1138,228.738 29.5,231.5C 29.3367,229.143 29.5034,226.81 30,224.5C 34.9307,216.88 39.9307,209.214 45,201.5C 51.3361,198.823 55.3361,194.157 57,187.5C 59.3504,185.317 61.517,182.984 63.5,180.5C 65.8111,179.786 67.9777,178.786 70,177.5C 70.6172,176.551 70.4506,175.718 69.5,175C 73.4385,171.571 76.7719,167.737 79.5,163.5C 86.4434,159.021 93.4434,154.521 100.5,150C 104.86,148.827 108.527,146.66 111.5,143.5C 122.454,140.251 133.454,137.418 144.5,135C 154.833,134.333 165.167,134.333 175.5,135C 183.577,136.891 191.244,139.557 198.5,143C 201.5,143.833 204.5,144.667 207.5,145.5C 212.463,149.479 218.129,152.146 224.5,153.5 Z"/></g>
<g><path style="opacity:0.769" fill="#6f9950" d="M 111.5,143.5 C 108.527,146.66 104.86,148.827 100.5,150C 93.4434,154.521 86.4434,159.021 79.5,163.5C 88.8315,154.863 99.4981,148.196 111.5,143.5 Z"/></g>
<g><path style="opacity:0.976" fill="#7cad52" d="M 230.5,157.5 C 245.358,167.355 259.025,178.688 271.5,191.5C 267.075,190.713 263.075,189.046 259.5,186.5C 259.649,185.448 259.483,184.448 259,183.5C 256.176,180.542 253.342,177.542 250.5,174.5C 243.131,169.449 236.465,163.783 230.5,157.5 Z"/></g>
<g><path style="opacity:1" fill="#74c23c" d="M 296.5,217.5 C 299.965,224.891 304.799,229.225 311,230.5C 312.5,232 314,233.5 315.5,235C 314.241,235.923 312.908,236.757 311.5,237.5C 310.359,238.425 310.359,239.259 311.5,240C 315.986,241.407 319.986,243.574 323.5,246.5C 324.034,248.614 325.034,250.448 326.5,252C 329.367,251.756 332.367,252.089 335.5,253C 336.833,253.667 336.833,254.333 335.5,255C 337.813,255.662 340.146,256.162 342.5,256.5C 342.421,257.93 342.754,259.264 343.5,260.5C 345.407,261.37 347.24,262.37 349,263.5C 351.02,262.968 351.853,261.635 351.5,259.5C 356.492,259.999 361.492,260.499 366.5,261C 367.337,262.011 367.67,263.178 367.5,264.5C 370.545,264.658 373.379,263.991 376,262.5C 377.816,263.329 379.649,264.163 381.5,265C 376.373,265.474 376.373,266.474 381.5,268C 380.833,268.333 380.167,268.667 379.5,269C 386.372,267.668 393.372,267.334 400.5,268C 401.337,269.011 401.67,270.178 401.5,271.5C 403.783,271.392 405.783,270.559 407.5,269C 406.5,268.667 405.5,268.333 404.5,268C 409.258,265.856 414.258,265.023 419.5,265.5C 419.663,267.857 419.497,270.19 419,272.5C 414.651,270.747 413.818,271.58 416.5,275C 417.793,275.49 419.127,275.657 420.5,275.5C 420.5,276.833 420.5,278.167 420.5,279.5C 424.971,279.672 425.304,280.506 421.5,282C 424.493,283.246 424.993,285.413 423,288.5C 421.921,286.606 420.587,286.273 419,287.5C 418.493,286.004 418.993,284.837 420.5,284C 419.874,283.25 419.374,282.416 419,281.5C 416.412,284.253 413.245,285.92 409.5,286.5C 408.359,287.425 408.359,288.259 409.5,289C 407.392,289.36 405.392,290.027 403.5,291C 406.15,293.082 405.816,294.749 402.5,296C 403.833,297 403.833,298 402.5,299C 399.062,298.865 396.228,300.032 394,302.5C 393.751,301.376 393.251,300.376 392.5,299.5C 391.568,301.766 390.234,303.766 388.5,305.5C 385.496,307.91 382.329,309.91 379,311.5C 371.839,312.293 364.839,312.293 358,311.5C 356.263,312.62 354.429,313.62 352.5,314.5C 349.684,313.87 347.018,314.536 344.5,316.5C 341.023,314.839 337.856,315.172 335,317.5C 334.167,316.5 333.333,315.5 332.5,314.5C 331.167,316.167 329.833,317.833 328.5,319.5C 325.213,316.607 321.38,315.274 317,315.5C 304.222,317.035 291.556,316.368 279,313.5C 273.523,316.154 269.023,315.321 265.5,311C 263.187,310.338 260.854,309.838 258.5,309.5C 258.5,308.167 258.5,306.833 258.5,305.5C 257.5,305.5 256.5,305.5 255.5,305.5C 255.649,306.552 255.483,307.552 255,308.5C 253.412,305.691 251.245,305.025 248.5,306.5C 244.659,304.62 241.326,302.12 238.5,299C 235.469,298.076 232.469,297.409 229.5,297C 227.306,294.806 225.14,292.64 223,290.5C 220.821,292.348 218.987,294.515 217.5,297C 216.5,297.667 215.5,297.667 214.5,297C 214.491,295.27 214.158,293.437 213.5,291.5C 212.833,291.833 212.167,292.167 211.5,292.5C 207.297,290.579 206.631,287.912 209.5,284.5C 212.399,283.762 215.065,283.762 217.5,284.5C 217.291,283.914 216.957,283.414 216.5,283C 213.5,282.667 210.5,282.333 207.5,282C 209.577,281.808 211.577,281.308 213.5,280.5C 212.271,279.719 210.938,279.219 209.5,279C 207.818,273.382 205.985,273.215 204,278.5C 203.667,277.833 203.333,277.167 203,276.5C 202.163,278.007 200.996,278.507 199.5,278C 200.13,276.108 201.13,274.441 202.5,273C 198.566,272.391 195.566,273.724 193.5,277C 192.552,277.483 191.552,277.649 190.5,277.5C 189.833,276.833 189.167,276.167 188.5,275.5C 188.063,273.926 187.063,272.759 185.5,272C 186.337,270.989 186.67,269.822 186.5,268.5C 184.738,268.643 183.071,268.309 181.5,267.5C 180.307,265.473 178.64,263.973 176.5,263C 178.612,262.094 179.445,260.594 179,258.5C 176.09,257.419 173.59,255.752 171.5,253.5C 172.247,253.264 173.08,252.93 174,252.5C 175.887,254.886 178.387,256.053 181.5,256C 182.833,257 182.833,258 181.5,259C 182.333,259.833 183.167,260.667 184,261.5C 184.419,260.328 185.085,259.328 186,258.5C 187.487,259.741 188.32,259.241 188.5,257C 187.841,254.538 187.507,252.038 187.5,249.5C 181.253,249.92 178.253,246.92 178.5,240.5C 175.828,239.499 173.161,238.499 170.5,237.5C 170,236.5 169.5,235.5 169,234.5C 170.355,228.243 170.855,221.91 170.5,215.5C 171.5,215.5 172.5,215.5 173.5,215.5C 171.549,209.016 170.215,202.35 169.5,195.5C 170.651,191.563 171.484,187.563 172,183.5C 172.497,186.146 172.664,188.813 172.5,191.5C 176.167,191.5 179.833,191.5 183.5,191.5C 183.238,192.978 183.571,194.311 184.5,195.5C 188.213,197.337 188.213,198.837 184.5,200C 186.5,202.333 188.5,204.667 190.5,207C 191.333,207.167 192.167,207.333 193,207.5C 195.543,205.665 198.376,204.165 201.5,203C 202.833,200.667 204.167,198.333 205.5,196C 208.817,195.502 212.15,195.335 215.5,195.5C 215.5,194.167 215.5,192.833 215.5,191.5C 218.167,191.5 220.833,191.5 223.5,191.5C 223.261,193.467 223.594,195.301 224.5,197C 226.759,196.561 229.092,196.061 231.5,195.5C 231.238,196.978 231.571,198.311 232.5,199.5C 233.647,197.235 233.814,194.902 233,192.5C 232.667,192.833 232.333,193.167 232,193.5C 230.064,191.192 229.231,188.525 229.5,185.5C 232.361,185.658 235.028,184.992 237.5,183.5C 238.442,183.608 239.275,183.941 240,184.5C 241.983,182.07 241.817,179.737 239.5,177.5C 243.31,173.401 245.977,174.067 247.5,179.5C 248.873,179.343 250.207,179.51 251.5,180C 252.669,181.836 254.336,183.002 256.5,183.5C 259.181,187.34 262.681,190.34 267,192.5C 267.614,194.313 267.281,194.647 266,193.5C 264.581,194.46 263.081,195.293 261.5,196C 263.094,201.067 264.76,206.234 266.5,211.5C 267.842,213.005 269.508,213.672 271.5,213.5C 271.338,215.527 271.505,217.527 272,219.5C 275.87,216.822 276.37,213.655 273.5,210C 275.301,209.683 275.634,209.016 274.5,208C 276.01,205.245 278.343,204.079 281.5,204.5C 281.351,205.552 281.517,206.552 282,207.5C 285.66,212.679 290.493,216.012 296.5,217.5 Z"/></g>
<g><path style="opacity:0.194" fill="#85e3e9" d="M 425.5,208.5 C 415.631,211.44 405.631,212.107 395.5,210.5C 405.67,210.648 415.67,209.981 425.5,208.5 Z"/></g>
<g><path style="opacity:1" fill="#78a84c" d="M 271.5,191.5 C 282.207,200.843 292.874,210.177 303.5,219.5C 301.079,219.122 298.746,218.455 296.5,217.5C 292.707,212.539 288.373,208.039 283.5,204C 276.541,202.544 272.541,198.377 271.5,191.5 Z"/></g>
<g><path style="opacity:0.988" fill="#76a054" d="M 34.5,213.5 C 34.6567,214.873 34.49,216.207 34,217.5C 30.4084,222.15 26.9084,226.816 23.5,231.5C 26.3808,224.967 30.0474,218.967 34.5,213.5 Z"/></g>
<g><path style="opacity:0.929" fill="#83af61" d="M 303.5,219.5 C 310.524,224.864 317.524,230.198 324.5,235.5C 322.821,235.108 321.154,234.608 319.5,234C 314.413,230.141 309.413,226.308 304.5,222.5C 303.873,221.583 303.539,220.583 303.5,219.5 Z"/></g>
<g><path style="opacity:1" fill="#76b046" d="M 79.5,163.5 C 76.7719,167.737 73.4385,171.571 69.5,175C 70.4506,175.718 70.6172,176.551 70,177.5C 67.9777,178.786 65.8111,179.786 63.5,180.5C 61.517,182.984 59.3504,185.317 57,187.5C 55.3361,194.157 51.3361,198.823 45,201.5C 39.9307,209.214 34.9307,216.88 30,224.5C 29.5034,226.81 29.3367,229.143 29.5,231.5C 39.1138,228.738 48.7805,225.904 58.5,223C 64.6667,222.833 70.8333,222.667 77,222.5C 83.538,222.504 89.7047,223.17 95.5,224.5C 69.9781,222.476 45.9781,227.476 23.5,239.5C 22.1938,238.533 21.5271,237.199 21.5,235.5C 21.6596,233.847 22.3263,232.514 23.5,231.5C 26.9084,226.816 30.4084,222.15 34,217.5C 34.49,216.207 34.6567,214.873 34.5,213.5C 45.9406,193.721 60.9406,177.054 79.5,163.5 Z"/></g>
<g><path style="opacity:1" fill="#95a774" d="M 21.5,235.5 C 21.5271,237.199 22.1938,238.533 23.5,239.5C 21.8212,241.175 19.8212,242.008 17.5,242C 18.7599,239.699 20.0933,237.532 21.5,235.5 Z"/></g>
<g><path style="opacity:1" fill="#7eb15b" d="M 325.5,235.5 C 331.871,240.018 338.538,244.018 345.5,247.5C 339.174,245.838 333.174,243.338 327.5,240C 326.418,238.67 325.751,237.17 325.5,235.5 Z"/></g>
<g><path style="opacity:1" fill="#86b262" d="M 449.5,258.5 C 450.295,254.524 450.962,250.524 451.5,246.5C 449.139,246.674 446.806,247.007 444.5,247.5C 447.797,245.399 451.463,244.065 455.5,243.5C 454.416,248.9 452.416,253.9 449.5,258.5 Z"/></g>
<g><path style="opacity:1" fill="#74a14e" d="M 167.5,259.5 C 174.784,264.45 181.784,269.783 188.5,275.5C 189.167,276.167 189.833,276.833 190.5,277.5C 198.366,285.981 207.033,293.814 216.5,301C 219.447,303.436 221.78,306.269 223.5,309.5C 204.51,293.176 185.843,276.509 167.5,259.5 Z"/></g>
<g><path style="opacity:0.653" fill="#bf514c" d="M 61.5,273.5 C 77.1759,271.619 92.8426,272.453 108.5,276C 111.187,276.728 113.52,277.895 115.5,279.5C 108.101,277.822 100.768,276.155 93.5,274.5C 83.0131,273.506 72.3464,273.172 61.5,273.5 Z"/></g>
<g><path style="opacity:1" fill="#7eae56" d="M 449.5,258.5 C 446.588,265.332 442.921,271.666 438.5,277.5C 438.5,275.5 438.5,273.5 438.5,271.5C 439.5,271.5 440.5,271.5 441.5,271.5C 441.357,269.738 441.691,268.071 442.5,266.5C 445.317,264.032 447.65,261.366 449.5,258.5 Z"/></g>
<g><path style="opacity:1" fill="#b21c14" d="M 61.5,273.5 C 72.3464,273.172 83.0131,273.506 93.5,274.5C 78.055,274.071 62.7217,274.738 47.5,276.5C 51.8894,274.754 56.5561,273.754 61.5,273.5 Z"/></g>
<g><path style="opacity:1" fill="#fc1a15" d="M 176.5,319.5 C 176.461,320.583 176.127,321.583 175.5,322.5C 176.949,323.172 178.282,323.839 179.5,324.5C 178.294,327.954 179.294,330.788 182.5,333C 188.207,334.54 192.207,338.04 194.5,343.5C 199.716,346.03 204.716,349.03 209.5,352.5C 208.147,353.524 207.48,354.857 207.5,356.5C 209.5,356.5 211.5,356.5 213.5,356.5C 213.244,358.912 214.244,360.579 216.5,361.5C 214.381,363.4 212.047,365.066 209.5,366.5C 209.709,367.086 210.043,367.586 210.5,368C 212.814,367.41 214.981,366.243 217,364.5C 219.478,365.332 221.978,365.499 224.5,365C 228.167,369.333 231.833,373.667 235.5,378C 236.793,378.49 238.127,378.657 239.5,378.5C 241.087,380.97 242.587,383.636 244,386.5C 246.585,388.758 249.418,390.591 252.5,392C 254.397,395.622 257.397,397.788 261.5,398.5C 262.308,398.192 262.975,397.692 263.5,397C 260.991,395.274 258.324,393.774 255.5,392.5C 257.341,391.77 259.175,391.103 261,390.5C 261.953,392.373 263.12,392.706 264.5,391.5C 268.939,397.676 274.606,399.676 281.5,397.5C 281.423,400.012 282.423,402.012 284.5,403.5C 289.877,404.253 295.044,404.253 300,403.5C 300.604,405.686 301.77,405.852 303.5,404C 310.267,402.567 316.434,403.734 322,407.5C 323,406.833 324,406.167 325,405.5C 326.333,406.167 327.667,406.833 329,407.5C 333.256,406.05 337.089,403.884 340.5,401C 343.188,400.608 345.855,400.108 348.5,399.5C 350.048,401.376 352.048,402.376 354.5,402.5C 351.354,405.844 348.687,409.677 346.5,414C 345.234,414.309 344.067,414.809 343,415.5C 341.989,414.663 340.822,414.33 339.5,414.5C 339.649,413.448 339.483,412.448 339,411.5C 338.667,411.833 338.333,412.167 338,412.5C 336.667,411.167 335.333,409.833 334,408.5C 333.685,411.147 332.518,411.813 330.5,410.5C 328.32,412.863 326.653,415.53 325.5,418.5C 326.656,420.771 327.156,423.105 327,425.5C 326.333,424.833 325.667,424.167 325,423.5C 321.568,425.681 319.068,428.681 317.5,432.5C 309.074,435.541 301.074,439.375 293.5,444C 289.252,443.469 286.918,445.303 286.5,449.5C 284.817,448.408 282.984,447.741 281,447.5C 273.79,447.614 266.624,447.614 259.5,447.5C 253.156,448.251 246.822,449.085 240.5,450C 240.043,450.414 239.709,450.914 239.5,451.5C 236.973,452.214 234.473,452.88 232,453.5C 231.544,452.256 232.044,451.423 233.5,451C 228.465,450.035 223.632,448.535 219,446.5C 212.439,446.832 205.606,446.999 198.5,447C 199.951,444.606 199.618,442.439 197.5,440.5C 193.395,439.639 189.561,438.305 186,436.5C 185.667,436.833 185.333,437.167 185,437.5C 184.517,436.552 184.351,435.552 184.5,434.5C 181.635,434.055 179.135,434.722 177,436.5C 176.173,433.584 174.506,432.917 172,434.5C 169.614,433.166 167.28,431.833 165,430.5C 161.636,431.739 158.136,432.406 154.5,432.5C 154.611,431.883 154.944,431.383 155.5,431C 151.349,430.076 147.349,428.909 143.5,427.5C 143.306,425.088 141.973,424.088 139.5,424.5C 139.785,422.712 139.452,421.045 138.5,419.5C 131.832,413.792 124.498,409.292 116.5,406C 115.311,402.14 112.977,399.14 109.5,397C 108.207,396.51 106.873,396.343 105.5,396.5C 96.0514,387.724 87.7181,378.057 80.5,367.5C 78.6773,364.837 77.6773,361.837 77.5,358.5C 74.6711,358.675 73.0045,357.342 72.5,354.5C 71.5832,353.873 70.5832,353.539 69.5,353.5C 63.0651,344.299 57.3984,334.632 52.5,324.5C 51.5273,319.269 49.3606,314.602 46,310.5C 45.3292,309.748 44.4959,309.414 43.5,309.5C 42.8333,307.5 42.1667,305.5 41.5,303.5C 41.5,302.167 41.5,300.833 41.5,299.5C 42.6371,295.618 42.6371,291.784 41.5,288C 42.8659,286.4 43.8659,284.567 44.5,282.5C 45.9363,286.136 47.603,286.303 49.5,283C 53.6363,281.586 57.6363,281.419 61.5,282.5C 65.081,281.73 68.581,280.73 72,279.5C 78.8292,280.189 85.6625,280.855 92.5,281.5C 93.7716,281.43 94.9383,281.097 96,280.5C 96.6172,281.449 96.4506,282.282 95.5,283C 97.2909,283.415 98.6243,284.415 99.5,286C 101.92,286.687 104.087,286.187 106,284.5C 106.483,285.448 106.649,286.448 106.5,287.5C 112.441,289.145 118.108,291.312 123.5,294C 125.5,294.667 126.833,296 127.5,298C 130.5,298.333 133.5,298.667 136.5,299C 137.833,299.667 137.833,300.333 136.5,301C 134.423,301.192 132.423,301.692 130.5,302.5C 131.693,304.384 133.359,304.884 135.5,304C 137.055,301.535 139.055,301.035 141.5,302.5C 142.478,302.023 143.311,301.357 144,300.5C 146.642,302.238 149.475,303.571 152.5,304.5C 154.333,306.833 156.167,309.167 158,311.5C 159.465,310.631 160.631,311.131 161.5,313C 160.518,313.381 159.852,314.214 159.5,315.5C 159.833,316.167 160.167,316.833 160.5,317.5C 161.328,316.585 162.328,315.919 163.5,315.5C 166.058,316.696 168.558,318.03 171,319.5C 172.887,318.245 174.72,318.245 176.5,319.5 Z"/></g>
<g><path style="opacity:1" fill="#cb3c32" d="M 47.5,276.5 C 44.2904,279.738 40.2904,281.572 35.5,282C 34.9781,282.561 34.6448,283.228 34.5,284C 35.8963,287.416 37.0629,290.916 38,294.5C 38.6972,296.584 39.8639,298.251 41.5,299.5C 41.5,300.833 41.5,302.167 41.5,303.5C 37.802,296.775 34.4687,289.775 31.5,282.5C 31.9767,281.522 32.6433,280.689 33.5,280C 38.0119,278.205 42.6786,277.039 47.5,276.5 Z"/></g>
<g><path style="opacity:1" fill="#80af53" d="M 438.5,277.5 C 433.446,285.608 427.446,292.941 420.5,299.5C 421.656,295.855 423.322,292.522 425.5,289.5C 426.67,287.721 428.336,286.721 430.5,286.5C 431.389,281.943 434.056,278.943 438.5,277.5 Z"/></g>
<g><path style="opacity:1" fill="#f31c17" d="M 93.5,274.5 C 100.768,276.155 108.101,277.822 115.5,279.5C 116.167,279.5 116.833,279.5 117.5,279.5C 120.138,281.185 122.471,283.351 124.5,286C 125.793,286.49 127.127,286.657 128.5,286.5C 128.5,287.833 128.5,289.167 128.5,290.5C 133.595,291.552 138.595,292.885 143.5,294.5C 143.33,295.822 143.663,296.989 144.5,298C 147.213,299.85 150.213,301.017 153.5,301.5C 156.024,306.908 160.358,309.575 166.5,309.5C 166.286,311.144 166.62,312.644 167.5,314C 170.436,315.462 173.436,316.629 176.5,317.5C 176.5,318.167 176.5,318.833 176.5,319.5C 174.72,318.245 172.887,318.245 171,319.5C 168.558,318.03 166.058,316.696 163.5,315.5C 162.328,315.919 161.328,316.585 160.5,317.5C 160.167,316.833 159.833,316.167 159.5,315.5C 159.852,314.214 160.518,313.381 161.5,313C 160.631,311.131 159.465,310.631 158,311.5C 156.167,309.167 154.333,306.833 152.5,304.5C 149.475,303.571 146.642,302.238 144,300.5C 143.311,301.357 142.478,302.023 141.5,302.5C 139.055,301.035 137.055,301.535 135.5,304C 133.359,304.884 131.693,304.384 130.5,302.5C 132.423,301.692 134.423,301.192 136.5,301C 137.833,300.333 137.833,299.667 136.5,299C 133.5,298.667 130.5,298.333 127.5,298C 126.833,296 125.5,294.667 123.5,294C 118.108,291.312 112.441,289.145 106.5,287.5C 106.649,286.448 106.483,285.448 106,284.5C 104.087,286.187 101.92,286.687 99.5,286C 98.6243,284.415 97.2909,283.415 95.5,283C 96.4506,282.282 96.6172,281.449 96,280.5C 94.9383,281.097 93.7716,281.43 92.5,281.5C 85.6625,280.855 78.8292,280.189 72,279.5C 68.581,280.73 65.081,281.73 61.5,282.5C 57.6363,281.419 53.6363,281.586 49.5,283C 47.603,286.303 45.9363,286.136 44.5,282.5C 43.8659,284.567 42.8659,286.4 41.5,288C 42.6371,291.784 42.6371,295.618 41.5,299.5C 39.8639,298.251 38.6972,296.584 38,294.5C 37.0629,290.916 35.8963,287.416 34.5,284C 34.6448,283.228 34.9781,282.561 35.5,282C 40.2904,281.572 44.2904,279.738 47.5,276.5C 62.7217,274.738 78.055,274.071 93.5,274.5 Z"/></g>
<g><path style="opacity:0.925" fill="#cf514c" d="M 125.5,282.5 C 129.782,285.03 134.116,287.363 138.5,289.5C 134.188,288.845 130.188,287.345 126.5,285C 125.748,284.329 125.414,283.496 125.5,282.5 Z"/></g>
<g><path style="opacity:1" fill="#dd2f29" d="M 117.5,279.5 C 120.143,280.454 122.81,281.454 125.5,282.5C 125.414,283.496 125.748,284.329 126.5,285C 130.188,287.345 134.188,288.845 138.5,289.5C 148.686,295.026 158.019,301.693 166.5,309.5C 160.358,309.575 156.024,306.908 153.5,301.5C 150.213,301.017 147.213,299.85 144.5,298C 143.663,296.989 143.33,295.822 143.5,294.5C 138.595,292.885 133.595,291.552 128.5,290.5C 128.5,289.167 128.5,287.833 128.5,286.5C 127.127,286.657 125.793,286.49 124.5,286C 122.471,283.351 120.138,281.185 117.5,279.5 Z"/></g>
<g><path style="opacity:1" fill="#73b640" d="M 425.5,289.5 C 423.322,292.522 421.656,295.855 420.5,299.5C 412.387,308.285 403.387,315.952 393.5,322.5C 393.868,318.878 393.868,315.378 393.5,312C 394.653,310.117 396.319,309.284 398.5,309.5C 398.5,308.5 398.5,307.5 398.5,306.5C 404.693,303.732 410.693,300.399 416.5,296.5C 418.094,292.264 421.094,289.931 425.5,289.5 Z"/></g>
<g><path style="opacity:1" fill="#71be3b" d="M 296.5,217.5 C 298.746,218.455 301.079,219.122 303.5,219.5C 303.539,220.583 303.873,221.583 304.5,222.5C 309.413,226.308 314.413,230.141 319.5,234C 321.154,234.608 322.821,235.108 324.5,235.5C 324.833,235.5 325.167,235.5 325.5,235.5C 325.751,237.17 326.418,238.67 327.5,240C 333.174,243.338 339.174,245.838 345.5,247.5C 347.153,247.66 348.486,248.326 349.5,249.5C 351.521,252.7 354.521,254.534 358.5,255C 359.337,256.011 359.67,257.178 359.5,258.5C 369.95,258.614 380.283,258.281 390.5,257.5C 391.167,257.167 391.833,256.833 392.5,256.5C 394.048,257.794 396.048,258.461 398.5,258.5C 407.102,257.008 415.769,255.841 424.5,255C 431.537,252.818 438.204,250.318 444.5,247.5C 446.806,247.007 449.139,246.674 451.5,246.5C 450.962,250.524 450.295,254.524 449.5,258.5C 447.65,261.366 445.317,264.032 442.5,266.5C 441.691,268.071 441.357,269.738 441.5,271.5C 440.5,271.5 439.5,271.5 438.5,271.5C 438.5,273.5 438.5,275.5 438.5,277.5C 434.056,278.943 431.389,281.943 430.5,286.5C 428.336,286.721 426.67,287.721 425.5,289.5C 421.094,289.931 418.094,292.264 416.5,296.5C 410.693,300.399 404.693,303.732 398.5,306.5C 398.5,307.5 398.5,308.5 398.5,309.5C 396.319,309.284 394.653,310.117 393.5,312C 393.868,315.378 393.868,318.878 393.5,322.5C 386.004,328.754 377.67,333.754 368.5,337.5C 365.15,337.335 361.817,337.502 358.5,338C 357.013,340.737 354.679,342.403 351.5,343C 345.947,343.222 340.614,344.389 335.5,346.5C 321.182,347.499 306.849,347.833 292.5,347.5C 290.708,347.634 289.042,347.301 287.5,346.5C 281.435,343.632 275.435,340.465 269.5,337C 268.227,334.807 267.894,332.64 268.5,330.5C 264.656,331.444 260.656,331.444 256.5,330.5C 255.5,330.167 254.5,329.833 253.5,329.5C 251.587,325.21 248.254,323.543 243.5,324.5C 236.262,320.262 229.596,315.262 223.5,309.5C 221.78,306.269 219.447,303.436 216.5,301C 207.033,293.814 198.366,285.981 190.5,277.5C 191.552,277.649 192.552,277.483 193.5,277C 195.566,273.724 198.566,272.391 202.5,273C 201.13,274.441 200.13,276.108 199.5,278C 200.996,278.507 202.163,278.007 203,276.5C 203.333,277.167 203.667,277.833 204,278.5C 205.985,273.215 207.818,273.382 209.5,279C 210.938,279.219 212.271,279.719 213.5,280.5C 211.577,281.308 209.577,281.808 207.5,282C 210.5,282.333 213.5,282.667 216.5,283C 216.957,283.414 217.291,283.914 217.5,284.5C 215.065,283.762 212.399,283.762 209.5,284.5C 206.631,287.912 207.297,290.579 211.5,292.5C 212.167,292.167 212.833,291.833 213.5,291.5C 214.158,293.437 214.491,295.27 214.5,297C 215.5,297.667 216.5,297.667 217.5,297C 218.987,294.515 220.821,292.348 223,290.5C 225.14,292.64 227.306,294.806 229.5,297C 232.469,297.409 235.469,298.076 238.5,299C 241.326,302.12 244.659,304.62 248.5,306.5C 251.245,305.025 253.412,305.691 255,308.5C 255.483,307.552 255.649,306.552 255.5,305.5C 256.5,305.5 257.5,305.5 258.5,305.5C 258.5,306.833 258.5,308.167 258.5,309.5C 260.854,309.838 263.187,310.338 265.5,311C 269.023,315.321 273.523,316.154 279,313.5C 291.556,316.368 304.222,317.035 317,315.5C 321.38,315.274 325.213,316.607 328.5,319.5C 329.833,317.833 331.167,316.167 332.5,314.5C 333.333,315.5 334.167,316.5 335,317.5C 337.856,315.172 341.023,314.839 344.5,316.5C 347.018,314.536 349.684,313.87 352.5,314.5C 354.429,313.62 356.263,312.62 358,311.5C 364.839,312.293 371.839,312.293 379,311.5C 382.329,309.91 385.496,307.91 388.5,305.5C 390.234,303.766 391.568,301.766 392.5,299.5C 393.251,300.376 393.751,301.376 394,302.5C 396.228,300.032 399.062,298.865 402.5,299C 403.833,298 403.833,297 402.5,296C 405.816,294.749 406.15,293.082 403.5,291C 405.392,290.027 407.392,289.36 409.5,289C 408.359,288.259 408.359,287.425 409.5,286.5C 413.245,285.92 416.412,284.253 419,281.5C 419.374,282.416 419.874,283.25 420.5,284C 418.993,284.837 418.493,286.004 419,287.5C 420.587,286.273 421.921,286.606 423,288.5C 424.993,285.413 424.493,283.246 421.5,282C 425.304,280.506 424.971,279.672 420.5,279.5C 420.5,278.167 420.5,276.833 420.5,275.5C 419.127,275.657 417.793,275.49 416.5,275C 413.818,271.58 414.651,270.747 419,272.5C 419.497,270.19 419.663,267.857 419.5,265.5C 414.258,265.023 409.258,265.856 404.5,268C 405.5,268.333 406.5,268.667 407.5,269C 405.783,270.559 403.783,271.392 401.5,271.5C 401.67,270.178 401.337,269.011 400.5,268C 393.372,267.334 386.372,267.668 379.5,269C 380.167,268.667 380.833,268.333 381.5,268C 376.373,266.474 376.373,265.474 381.5,265C 379.649,264.163 377.816,263.329 376,262.5C 373.379,263.991 370.545,264.658 367.5,264.5C 367.67,263.178 367.337,262.011 366.5,261C 361.492,260.499 356.492,259.999 351.5,259.5C 351.853,261.635 351.02,262.968 349,263.5C 347.24,262.37 345.407,261.37 343.5,260.5C 342.754,259.264 342.421,257.93 342.5,256.5C 340.146,256.162 337.813,255.662 335.5,255C 336.833,254.333 336.833,253.667 335.5,253C 332.367,252.089 329.367,251.756 326.5,252C 325.034,250.448 324.034,248.614 323.5,246.5C 319.986,243.574 315.986,241.407 311.5,240C 310.359,239.259 310.359,238.425 311.5,237.5C 312.908,236.757 314.241,235.923 315.5,235C 314,233.5 312.5,232 311,230.5C 304.799,229.225 299.965,224.891 296.5,217.5 Z"/></g>
<g><path style="opacity:1" fill="#78b352" d="M 349.5,249.5 C 362.741,254.215 376.407,256.881 390.5,257.5C 380.283,258.281 369.95,258.614 359.5,258.5C 359.67,257.178 359.337,256.011 358.5,255C 354.521,254.534 351.521,252.7 349.5,249.5 Z"/></g>
<g><path style="opacity:1" fill="#76ab53" d="M 444.5,247.5 C 438.204,250.318 431.537,252.818 424.5,255C 415.769,255.841 407.102,257.008 398.5,258.5C 396.048,258.461 394.048,257.794 392.5,256.5C 410.055,254.796 427.388,251.796 444.5,247.5 Z"/></g>
<g><path style="opacity:1" fill="#de3c2f" d="M 166.5,309.5 C 170.207,311.688 173.54,314.355 176.5,317.5C 173.436,316.629 170.436,315.462 167.5,314C 166.62,312.644 166.286,311.144 166.5,309.5 Z"/></g>
<g><path style="opacity:1" fill="#d04837" d="M 43.5,309.5 C 44.4959,309.414 45.3292,309.748 46,310.5C 49.3606,314.602 51.5273,319.269 52.5,324.5C 49.263,319.701 46.263,314.701 43.5,309.5 Z"/></g>
<g><path style="opacity:1" fill="#df3028" d="M 176.5,317.5 C 184.099,322.8 191.099,328.8 197.5,335.5C 196.127,335.657 194.793,335.49 193.5,335C 192.654,332.82 191.154,331.32 189,330.5C 188.055,330.905 187.388,331.572 187,332.5C 185.252,330.865 184.085,328.865 183.5,326.5C 182.914,326.709 182.414,327.043 182,327.5C 181.623,326.058 180.79,325.058 179.5,324.5C 178.282,323.839 176.949,323.172 175.5,322.5C 176.127,321.583 176.461,320.583 176.5,319.5C 176.5,318.833 176.5,318.167 176.5,317.5 Z"/></g>
<g><path style="opacity:1" fill="#71ac41" d="M 243.5,324.5 C 248.254,323.543 251.587,325.21 253.5,329.5C 254.5,329.833 255.5,330.167 256.5,330.5C 260.656,331.444 264.656,331.444 268.5,330.5C 267.894,332.64 268.227,334.807 269.5,337C 275.435,340.465 281.435,343.632 287.5,346.5C 271.099,342.3 256.433,334.966 243.5,324.5 Z"/></g>
<g><path style="opacity:1" fill="#dc352c" d="M 197.5,335.5 C 206.819,342.821 215.819,350.488 224.5,358.5C 221.888,357.629 219.221,356.963 216.5,356.5C 215.38,351.924 212.38,349.758 207.5,350C 209.271,349.465 209.604,348.631 208.5,347.5C 206.929,346.691 205.262,346.357 203.5,346.5C 201.17,343.13 199.17,339.463 197.5,335.5 Z"/></g>
<g><path style="opacity:1" fill="#78af4f" d="M 368.5,337.5 C 344.272,349.548 318.939,352.881 292.5,347.5C 306.849,347.833 321.182,347.499 335.5,346.5C 340.614,344.389 345.947,343.222 351.5,343C 354.679,342.403 357.013,340.737 358.5,338C 361.817,337.502 365.15,337.335 368.5,337.5 Z"/></g>
<g><path style="opacity:1" fill="#944338" d="M 419.5,353.5 C 419.649,352.448 419.483,351.448 419,350.5C 418.329,351.252 417.496,351.586 416.5,351.5C 420.146,347.188 424.146,343.188 428.5,339.5C 426.611,344.547 423.611,349.213 419.5,353.5 Z"/></g>
<g><path style="opacity:1" fill="#dd3a2c" d="M 69.5,353.5 C 70.5832,353.539 71.5832,353.873 72.5,354.5C 73.0045,357.342 74.6711,358.675 77.5,358.5C 77.6773,361.837 78.6773,364.837 80.5,367.5C 76.3621,363.235 72.6954,358.569 69.5,353.5 Z"/></g>
<g><path style="opacity:1" fill="#b12a1f" d="M 419.5,353.5 C 417.6,357.732 414.933,361.399 411.5,364.5C 412.188,359.758 411.188,358.925 408.5,362C 407.207,362.49 405.873,362.657 404.5,362.5C 408.474,358.862 412.474,355.195 416.5,351.5C 417.496,351.586 418.329,351.252 419,350.5C 419.483,351.448 419.649,352.448 419.5,353.5 Z"/></g>
<g><path style="opacity:1" fill="#f01e18" d="M 179.5,324.5 C 180.79,325.058 181.623,326.058 182,327.5C 182.414,327.043 182.914,326.709 183.5,326.5C 184.085,328.865 185.252,330.865 187,332.5C 187.388,331.572 188.055,330.905 189,330.5C 191.154,331.32 192.654,332.82 193.5,335C 194.793,335.49 196.127,335.657 197.5,335.5C 199.17,339.463 201.17,343.13 203.5,346.5C 205.262,346.357 206.929,346.691 208.5,347.5C 209.604,348.631 209.271,349.465 207.5,350C 212.38,349.758 215.38,351.924 216.5,356.5C 219.221,356.963 221.888,357.629 224.5,358.5C 224.539,359.583 224.873,360.583 225.5,361.5C 229.396,364.907 233.396,368.074 237.5,371C 241.51,372.186 244.843,374.353 247.5,377.5C 250.188,378.513 252.854,379.513 255.5,380.5C 256.833,381.833 258.167,383.167 259.5,384.5C 259.343,385.873 259.51,387.207 260,388.5C 262.026,388.915 263.526,389.915 264.5,391.5C 263.12,392.706 261.953,392.373 261,390.5C 259.175,391.103 257.341,391.77 255.5,392.5C 258.324,393.774 260.991,395.274 263.5,397C 262.975,397.692 262.308,398.192 261.5,398.5C 257.397,397.788 254.397,395.622 252.5,392C 249.418,390.591 246.585,388.758 244,386.5C 242.587,383.636 241.087,380.97 239.5,378.5C 238.127,378.657 236.793,378.49 235.5,378C 231.833,373.667 228.167,369.333 224.5,365C 221.978,365.499 219.478,365.332 217,364.5C 214.981,366.243 212.814,367.41 210.5,368C 210.043,367.586 209.709,367.086 209.5,366.5C 212.047,365.066 214.381,363.4 216.5,361.5C 214.244,360.579 213.244,358.912 213.5,356.5C 211.5,356.5 209.5,356.5 207.5,356.5C 207.48,354.857 208.147,353.524 209.5,352.5C 204.716,349.03 199.716,346.03 194.5,343.5C 192.207,338.04 188.207,334.54 182.5,333C 179.294,330.788 178.294,327.954 179.5,324.5 Z"/></g>
<g><path style="opacity:1" fill="#d74641" d="M 224.5,358.5 C 234.695,366.091 245.029,373.425 255.5,380.5C 252.854,379.513 250.188,378.513 247.5,377.5C 244.843,374.353 241.51,372.186 237.5,371C 233.396,368.074 229.396,364.907 225.5,361.5C 224.873,360.583 224.539,359.583 224.5,358.5 Z"/></g>
<g><path style="opacity:1" fill="#d62f24" d="M 411.5,364.5 C 405.956,372.891 399.789,380.891 393,388.5C 386.93,395.074 380.43,401.074 373.5,406.5C 373.215,404.712 373.548,403.045 374.5,401.5C 378.156,402.201 380.156,400.534 380.5,396.5C 381.5,396.5 382.5,396.5 383.5,396.5C 383.5,395.167 383.5,393.833 383.5,392.5C 384.5,392.5 385.5,392.5 386.5,392.5C 385.833,388.5 387.5,386.833 391.5,387.5C 391.5,386.167 391.5,384.833 391.5,383.5C 392.5,383.5 393.5,383.5 394.5,383.5C 394.961,381.084 396.294,379.25 398.5,378C 398.05,376.715 397.383,375.548 396.5,374.5C 397.376,373.749 398.376,373.249 399.5,373C 396.833,372.333 396.833,371.667 399.5,371C 395.229,372.458 390.895,373.958 386.5,375.5C 392.492,371.169 398.492,366.836 404.5,362.5C 405.873,362.657 407.207,362.49 408.5,362C 411.188,358.925 412.188,359.758 411.5,364.5 Z"/></g>
<g><path style="opacity:1" fill="#d74640" d="M 255.5,380.5 C 261.838,383.002 267.838,386.002 273.5,389.5C 268.836,387.655 264.169,385.988 259.5,384.5C 258.167,383.167 256.833,381.833 255.5,380.5 Z"/></g>
<g><path style="opacity:1" fill="#c43d33" d="M 386.5,375.5 C 386.179,377.048 385.179,377.715 383.5,377.5C 383.5,378.5 383.5,379.5 383.5,380.5C 373.132,384.956 362.466,388.623 351.5,391.5C 363.486,387.009 375.153,381.676 386.5,375.5 Z"/></g>
<g><path style="opacity:1" fill="#e71f18" d="M 373.5,406.5 C 371.887,406.056 370.72,405.056 370,403.5C 369.907,406.007 369.074,408.174 367.5,410C 363.452,411.16 359.785,411.66 356.5,411.5C 361.034,407.726 365.701,403.893 370.5,400C 371.448,399.517 372.448,399.351 373.5,399.5C 372.959,396.348 373.959,393.848 376.5,392C 379.279,390.278 382.279,389.111 385.5,388.5C 385.993,386.194 386.326,383.861 386.5,381.5C 389.5,381.833 390.833,380.5 390.5,377.5C 387.471,378.677 384.804,380.51 382.5,383C 381.167,383.333 379.833,383.667 378.5,384C 377.167,384.667 377.167,385.333 378.5,386C 374.509,388.11 370.176,389.11 365.5,389C 361.342,390.806 357.009,392.139 352.5,393C 351.91,394.299 350.91,395.132 349.5,395.5C 344.162,396.072 338.829,396.739 333.5,397.5C 333.291,398.086 332.957,398.586 332.5,399C 320.395,400.022 308.395,400.855 296.5,401.5C 295.304,401.154 295.304,400.654 296.5,400C 295.667,399.833 294.833,399.667 294,399.5C 291.14,399.888 288.14,399.888 285,399.5C 282.759,399.32 282.259,398.487 283.5,397C 277.502,394.413 271.169,392.58 264.5,391.5C 263.526,389.915 262.026,388.915 260,388.5C 259.51,387.207 259.343,385.873 259.5,384.5C 264.169,385.988 268.836,387.655 273.5,389.5C 275.099,389.232 276.432,389.566 277.5,390.5C 281.142,392.224 284.808,394.058 288.5,396C 302.242,398.56 315.909,399.06 329.5,397.5C 330.5,396.833 331.5,396.167 332.5,395.5C 338.812,394.171 345.145,392.837 351.5,391.5C 362.466,388.623 373.132,384.956 383.5,380.5C 383.5,379.5 383.5,378.5 383.5,377.5C 385.179,377.715 386.179,377.048 386.5,375.5C 390.895,373.958 395.229,372.458 399.5,371C 396.833,371.667 396.833,372.333 399.5,373C 398.376,373.249 397.376,373.749 396.5,374.5C 397.383,375.548 398.05,376.715 398.5,378C 396.294,379.25 394.961,381.084 394.5,383.5C 393.5,383.5 392.5,383.5 391.5,383.5C 391.5,384.833 391.5,386.167 391.5,387.5C 387.5,386.833 385.833,388.5 386.5,392.5C 385.5,392.5 384.5,392.5 383.5,392.5C 383.5,393.833 383.5,395.167 383.5,396.5C 382.5,396.5 381.5,396.5 380.5,396.5C 380.156,400.534 378.156,402.201 374.5,401.5C 373.548,403.045 373.215,404.712 373.5,406.5 Z"/></g>
<g><path style="opacity:1" fill="#c5322c" d="M 277.5,390.5 C 285.996,393.331 294.663,395.331 303.5,396.5C 311.984,397.493 320.651,397.826 329.5,397.5C 315.909,399.06 302.242,398.56 288.5,396C 284.808,394.058 281.142,392.224 277.5,390.5 Z"/></g>
<g><path style="opacity:1" fill="#dd241a" d="M 373.5,406.5 C 366.898,413.132 359.564,418.799 351.5,423.5C 349.5,424.167 347.5,424.833 345.5,425.5C 345.372,423.345 345.872,421.345 347,419.5C 349.167,421.464 351.501,421.798 354,420.5C 354.199,417.278 355.032,414.278 356.5,411.5C 359.785,411.66 363.452,411.16 367.5,410C 369.074,408.174 369.907,406.007 370,403.5C 370.72,405.056 371.887,406.056 373.5,406.5 Z"/></g>
<g><path style="opacity:1" fill="#e92e23" d="M 105.5,396.5 C 106.873,396.343 108.207,396.51 109.5,397C 112.977,399.14 115.311,402.14 116.5,406C 124.498,409.292 131.832,413.792 138.5,419.5C 139.452,421.045 139.785,422.712 139.5,424.5C 141.973,424.088 143.306,425.088 143.5,427.5C 129.356,419.079 116.689,408.746 105.5,396.5 Z"/></g>
<g><path style="opacity:0.929" fill="#bf392d" d="M 351.5,423.5 C 348.197,427.156 344.197,429.822 339.5,431.5C 341.07,429.053 343.07,427.053 345.5,425.5C 347.5,424.833 349.5,424.167 351.5,423.5 Z"/></g>
<g><path style="opacity:1" fill="#e63022" d="M 143.5,427.5 C 147.349,428.909 151.349,430.076 155.5,431C 154.944,431.383 154.611,431.883 154.5,432.5C 157.816,433.347 161.15,434.514 164.5,436C 165.833,436.667 165.833,437.333 164.5,438C 165.448,438.483 166.448,438.649 167.5,438.5C 167.5,439.5 167.5,440.5 167.5,441.5C 158.836,437.839 150.836,433.173 143.5,427.5 Z"/></g>
<g><path style="opacity:1" fill="#d54238" d="M 171.5,443.5 C 176.232,443.627 180.232,445.293 183.5,448.5C 179.203,447.345 175.203,445.679 171.5,443.5 Z"/></g>
<g><path style="opacity:0.961" fill="#c82a22" d="M 322.5,440.5 C 317.798,443.968 312.465,446.301 306.5,447.5C 309.302,445.354 312.302,443.354 315.5,441.5C 317.743,440.526 320.076,440.192 322.5,440.5 Z"/></g>
<g><path style="opacity:1" fill="#cb352d" d="M 184.5,448.5 C 188.222,449.017 191.888,449.85 195.5,451C 196.942,451.377 197.942,452.21 198.5,453.5C 193.607,452.204 188.94,450.538 184.5,448.5 Z"/></g>
<g><path style="opacity:1" fill="#f61913" d="M 356.5,411.5 C 355.032,414.278 354.199,417.278 354,420.5C 351.501,421.798 349.167,421.464 347,419.5C 345.872,421.345 345.372,423.345 345.5,425.5C 343.07,427.053 341.07,429.053 339.5,431.5C 334.543,435.779 328.876,438.779 322.5,440.5C 320.076,440.192 317.743,440.526 315.5,441.5C 312.302,443.354 309.302,445.354 306.5,447.5C 301.049,450.707 295.049,452.707 288.5,453.5C 277.715,455.786 266.715,457.12 255.5,457.5C 242.483,457.484 229.483,456.984 216.5,456C 211.045,454.275 205.378,453.441 199.5,453.5C 199.167,453.5 198.833,453.5 198.5,453.5C 197.942,452.21 196.942,451.377 195.5,451C 191.888,449.85 188.222,449.017 184.5,448.5C 184.167,448.5 183.833,448.5 183.5,448.5C 180.232,445.293 176.232,443.627 171.5,443.5C 169.847,443.34 168.514,442.674 167.5,441.5C 167.5,440.5 167.5,439.5 167.5,438.5C 166.448,438.649 165.448,438.483 164.5,438C 165.833,437.333 165.833,436.667 164.5,436C 161.15,434.514 157.816,433.347 154.5,432.5C 158.136,432.406 161.636,431.739 165,430.5C 167.28,431.833 169.614,433.166 172,434.5C 174.506,432.917 176.173,433.584 177,436.5C 179.135,434.722 181.635,434.055 184.5,434.5C 184.351,435.552 184.517,436.552 185,437.5C 185.333,437.167 185.667,436.833 186,436.5C 189.561,438.305 193.395,439.639 197.5,440.5C 199.618,442.439 199.951,444.606 198.5,447C 205.606,446.999 212.439,446.832 219,446.5C 223.632,448.535 228.465,450.035 233.5,451C 232.044,451.423 231.544,452.256 232,453.5C 234.473,452.88 236.973,452.214 239.5,451.5C 239.709,450.914 240.043,450.414 240.5,450C 246.822,449.085 253.156,448.251 259.5,447.5C 266.624,447.614 273.79,447.614 281,447.5C 282.984,447.741 284.817,448.408 286.5,449.5C 286.918,445.303 289.252,443.469 293.5,444C 301.074,439.375 309.074,435.541 317.5,432.5C 319.068,428.681 321.568,425.681 325,423.5C 325.667,424.167 326.333,424.833 327,425.5C 327.156,423.105 326.656,420.771 325.5,418.5C 326.653,415.53 328.32,412.863 330.5,410.5C 332.518,411.813 333.685,411.147 334,408.5C 335.333,409.833 336.667,411.167 338,412.5C 338.333,412.167 338.667,411.833 339,411.5C 339.483,412.448 339.649,413.448 339.5,414.5C 340.822,414.33 341.989,414.663 343,415.5C 344.067,414.809 345.234,414.309 346.5,414C 348.687,409.677 351.354,405.844 354.5,402.5C 352.048,402.376 350.048,401.376 348.5,399.5C 345.855,400.108 343.188,400.608 340.5,401C 337.089,403.884 333.256,406.05 329,407.5C 327.667,406.833 326.333,406.167 325,405.5C 324,406.167 323,406.833 322,407.5C 316.434,403.734 310.267,402.567 303.5,404C 301.77,405.852 300.604,405.686 300,403.5C 295.044,404.253 289.877,404.253 284.5,403.5C 282.423,402.012 281.423,400.012 281.5,397.5C 274.606,399.676 268.939,397.676 264.5,391.5C 271.169,392.58 277.502,394.413 283.5,397C 282.259,398.487 282.759,399.32 285,399.5C 288.14,399.888 291.14,399.888 294,399.5C 294.833,399.667 295.667,399.833 296.5,400C 295.304,400.654 295.304,401.154 296.5,401.5C 308.395,400.855 320.395,400.022 332.5,399C 332.957,398.586 333.291,398.086 333.5,397.5C 338.829,396.739 344.162,396.072 349.5,395.5C 350.91,395.132 351.91,394.299 352.5,393C 357.009,392.139 361.342,390.806 365.5,389C 370.176,389.11 374.509,388.11 378.5,386C 377.167,385.333 377.167,384.667 378.5,384C 379.833,383.667 381.167,383.333 382.5,383C 384.804,380.51 387.471,378.677 390.5,377.5C 390.833,380.5 389.5,381.833 386.5,381.5C 386.326,383.861 385.993,386.194 385.5,388.5C 382.279,389.111 379.279,390.278 376.5,392C 373.959,393.848 372.959,396.348 373.5,399.5C 372.448,399.351 371.448,399.517 370.5,400C 365.701,403.893 361.034,407.726 356.5,411.5 Z"/></g>
<g><path style="opacity:0.599" fill="#b24545" d="M 332.5,395.5 C 331.5,396.167 330.5,396.833 329.5,397.5C 320.651,397.826 311.984,397.493 303.5,396.5C 313.194,396.693 322.861,396.36 332.5,395.5 Z"/></g>
<g><path style="opacity:1" fill="#d21e18" d="M 199.5,453.5 C 205.378,453.441 211.045,454.275 216.5,456C 229.483,456.984 242.483,457.484 255.5,457.5C 247.016,458.493 238.349,458.826 229.5,458.5C 219.094,458.543 209.094,456.877 199.5,453.5 Z"/></g>
<g><path style="opacity:0.935" fill="#ca3631" d="M 288.5,453.5 C 282.77,455.552 276.77,457.052 270.5,458C 256.685,459.533 243.018,459.7 229.5,458.5C 238.349,458.826 247.016,458.493 255.5,457.5C 266.715,457.12 277.715,455.786 288.5,453.5 Z"/></g>
</svg>
